<svg xmlns="http://www.w3.org/2000/svg" id="Layer_1" data-name="Layer 1" viewBox="0 0 275.79 73.02"><defs><style>.cls-1{fill:#a0c93a;}.cls-2{fill:#dae247;}.cls-3{fill:#3e4e61;}</style></defs><polygon class="cls-1" points="143.8 36.38 82.37 0.91 82.37 25.42 102.47 37.02 82.37 48.63 82.37 71.87 143.8 36.38"></polygon><polygon class="cls-2" points="82.36 48.64 62.25 37.03 82.36 25.42 82.37 25.42 82.37 0.91 82.37 0.91 0.45 48.21 20.94 60.02 41.4 48.21 82.36 71.87 82.37 71.87 82.37 48.63 82.36 48.64"></polygon><polygon class="cls-1" points="62.25 37.03 62.26 60.24 82.36 71.87 82.36 48.63 62.25 37.03"></polygon><polygon class="cls-2" points="102.47 37.02 102.48 60.24 82.36 71.87 82.38 48.63 102.47 37.02"></polygon><path class="cls-3" d="M181.11,31.4c0-3.93-2.45-6-6.67-6h-6.61V37.61h6.61c4.22,0,6.67-2.17,6.67-6.21m9.92-.34c0,9.4-5.87,14.87-16.07,14.87h-7.13V57H157.41V17H175c10.2,0,16.07,5.13,16.07,14"></path><polygon class="cls-3" points="229.73 17.04 229.73 25.36 208.65 25.36 208.65 32.82 227.68 32.82 227.68 41.09 208.65 41.14 208.65 48.66 230.3 48.66 230.3 56.98 198.22 56.98 198.22 17.04 229.73 17.04"></polygon><path class="cls-3" d="M257.58,25.59c-6.16,0-10.83,4.84-10.83,11.22s4.67,11.34,10.83,11.34c3.3,0,7.12-1.82,9.91-4.67l6.1,6.55A23.88,23.88,0,0,1,257,57.44c-12,0-21-8.77-21-20.51,0-11.52,9.17-20.18,21.37-20.18a22.9,22.9,0,0,1,16.12,6.84l-6,7.24c-2.62-3.19-6.44-5.24-9.91-5.24"></path></svg>